<svg xmlns="http://www.w3.org/2000/svg" viewBox="0 0 288 288" width="128" height="128">
<g stroke-width="9.729" fill="none" fill-rule="evenodd">
<path d="M126.475 45.78V2M68.053 70.004 37.115 39.067M43.877 128.426H.097M68.102 186.847l-30.987 30.987M184.896 69.956l30.986-30.938M190.782 106.098c-10.109-29.29-38.715-48.063-69.608-45.682-30.894 2.38-56.286 25.316-61.787 55.808-5.502 30.493 10.274 60.856 38.388 73.883M183.777 285.011l29.381-50.346H179.74l29.43-50.396" stroke="#FF8700"/>
<path d="M208.732 213.699h29.186c24.448 0 44.266-19.819 44.266-44.266 0-24.448-19.818-44.266-44.266-44.266h-7.54c-13.975-17.01-36.943-23.726-57.88-16.922-20.938 6.804-35.572 25.737-36.878 47.713h-9.145a28.895 28.895 0 1 0 0 57.741h48.644" stroke="#BABABA"/>
</g>
</svg>