<svg xmlns="http://www.w3.org/2000/svg" viewBox="0 0 288 288" width="128" height="128"><g stroke-width="9.796" fill="none" fill-rule="evenodd"><path d="M204.873 168.698c31.109 0 56.327-25.218 56.327-56.327 0-31.108-25.218-56.326-56.327-56.326h-9.649c-17.997-21.189-47.006-29.414-73.446-20.826-26.44 8.588-45.079 32.29-47.19 60.01H62.784c-20.288 0-36.735 16.446-36.735 36.734s16.447 36.735 36.735 36.735h142.09Z" stroke="#BABABA"></path><path d="m50.44 234.429 26.842-45.992M121.657 234.429l26.841-45.992M72.53 257.645l40.36-69.208M194.294 234.429l26.84-45.992M145.118 257.645l40.409-69.208" stroke="#288ADB"></path></g></svg>